<svg width="176" height="19" viewBox="0 0 176 19" fill="none" xmlns="http://www.w3.org/2000/svg">
<path d="M-0.0079999 1.2H3.88V14.832H12.304V18H-0.0079999V1.2ZM22.3311 18.288C20.5871 18.288 19.0111 17.912 17.6031 17.16C16.2111 16.408 15.1151 15.376 14.3151 14.064C13.5311 12.736 13.1391 11.248 13.1391 9.6C13.1391 7.952 13.5311 6.472 14.3151 5.16C15.1151 3.832 16.2111 2.792 17.6031 2.04C19.0111 1.288 20.5871 0.912 22.3311 0.912C24.0751 0.912 25.6431 1.288 27.0351 2.04C28.4271 2.792 29.5231 3.832 30.3231 5.16C31.1231 6.472 31.5231 7.952 31.5231 9.6C31.5231 11.248 31.1231 12.736 30.3231 14.064C29.5231 15.376 28.4271 16.408 27.0351 17.16C25.6431 17.912 24.0751 18.288 22.3311 18.288ZM22.3311 14.976C23.3231 14.976 24.2191 14.752 25.0191 14.304C25.8191 13.84 26.4431 13.2 26.8911 12.384C27.3551 11.568 27.5871 10.64 27.5871 9.6C27.5871 8.56 27.3551 7.632 26.8911 6.816C26.4431 6 25.8191 5.368 25.0191 4.92C24.2191 4.456 23.3231 4.224 22.3311 4.224C21.3391 4.224 20.4431 4.456 19.6431 4.92C18.8431 5.368 18.2111 6 17.7471 6.816C17.2991 7.632 17.0751 8.56 17.0751 9.6C17.0751 10.64 17.2991 11.568 17.7471 12.384C18.2111 13.2 18.8431 13.84 19.6431 14.304C20.4431 14.752 21.3391 14.976 22.3311 14.976ZM45.7971 9.336H49.3491V16.152C48.4371 16.84 47.3811 17.368 46.1811 17.736C44.9811 18.104 43.7731 18.288 42.5571 18.288C40.8131 18.288 39.2451 17.92 37.8531 17.184C36.4611 16.432 35.3651 15.4 34.5651 14.088C33.7811 12.76 33.3891 11.264 33.3891 9.6C33.3891 7.936 33.7811 6.448 34.5651 5.136C35.3651 3.808 36.4691 2.776 37.8771 2.04C39.2851 1.288 40.8691 0.912 42.6291 0.912C44.1011 0.912 45.4371 1.16 46.6371 1.656C47.8371 2.152 48.8451 2.872 49.6611 3.816L47.1651 6.12C45.9651 4.856 44.5171 4.224 42.8211 4.224C41.7491 4.224 40.7971 4.448 39.9651 4.896C39.1331 5.344 38.4851 5.976 38.0211 6.792C37.5571 7.608 37.3251 8.544 37.3251 9.6C37.3251 10.64 37.5571 11.568 38.0211 12.384C38.4851 13.2 39.1251 13.84 39.9411 14.304C40.7731 14.752 41.7171 14.976 42.7731 14.976C43.8931 14.976 44.9011 14.736 45.7971 14.256V9.336ZM61.0968 18.288C59.3528 18.288 57.7768 17.912 56.3688 17.16C54.9768 16.408 53.8808 15.376 53.0808 14.064C52.2968 12.736 51.9048 11.248 51.9048 9.6C51.9048 7.952 52.2968 6.472 53.0808 5.16C53.8808 3.832 54.9768 2.792 56.3688 2.04C57.7768 1.288 59.3528 0.912 61.0968 0.912C62.8408 0.912 64.4088 1.288 65.8008 2.04C67.1928 2.792 68.2888 3.832 69.0888 5.16C69.8888 6.472 70.2888 7.952 70.2888 9.6C70.2888 11.248 69.8888 12.736 69.0888 14.064C68.2888 15.376 67.1928 16.408 65.8008 17.16C64.4088 17.912 62.8408 18.288 61.0968 18.288ZM61.0968 14.976C62.0888 14.976 62.9848 14.752 63.7848 14.304C64.5848 13.84 65.2088 13.2 65.6568 12.384C66.1208 11.568 66.3528 10.64 66.3528 9.6C66.3528 8.56 66.1208 7.632 65.6568 6.816C65.2088 6 64.5848 5.368 63.7848 4.92C62.9848 4.456 62.0888 4.224 61.0968 4.224C60.1048 4.224 59.2088 4.456 58.4088 4.92C57.6088 5.368 56.9768 6 56.5128 6.816C56.0648 7.632 55.8408 8.56 55.8408 9.6C55.8408 10.64 56.0648 11.568 56.5128 12.384C56.9768 13.2 57.6088 13.84 58.4088 14.304C59.2088 14.752 60.1048 14.976 61.0968 14.976ZM85.5468 9.264C86.5068 9.568 87.2588 10.08 87.8028 10.8C88.3468 11.504 88.6188 12.376 88.6188 13.416C88.6188 14.888 88.0428 16.024 86.8908 16.824C85.7548 17.608 84.0908 18 81.8988 18H73.2108V1.2H81.4188C83.4668 1.2 85.0348 1.592 86.1228 2.376C87.2268 3.16 87.7788 4.224 87.7788 5.568C87.7788 6.384 87.5788 7.112 87.1788 7.752C86.7948 8.392 86.2508 8.896 85.5468 9.264ZM77.0748 4.128V8.088H80.9388C81.8988 8.088 82.6268 7.92 83.1228 7.584C83.6188 7.248 83.8668 6.752 83.8668 6.096C83.8668 5.44 83.6188 4.952 83.1228 4.632C82.6268 4.296 81.8988 4.128 80.9388 4.128H77.0748ZM81.6108 15.072C82.6348 15.072 83.4028 14.904 83.9148 14.568C84.4428 14.232 84.7068 13.712 84.7068 13.008C84.7068 11.616 83.6748 10.92 81.6108 10.92H77.0748V15.072H81.6108ZM102.626 14.4H94.8263L93.3383 18H89.3543L96.8423 1.2H100.682L108.194 18H104.114L102.626 14.4ZM101.402 11.448L98.7383 5.016L96.0743 11.448H101.402ZM116.057 11.4L113.801 13.752V18H109.937V1.2H113.801V9.048L121.241 1.2H125.561L118.601 8.688L125.969 18H121.433L116.057 11.4ZM140.711 14.88V18H127.703V1.2H140.399V4.32H131.567V7.968H139.367V10.992H131.567V14.88H140.711ZM154.509 18L151.269 13.32H151.077H147.693V18H143.805V1.2H151.077C152.565 1.2 153.853 1.448 154.941 1.944C156.045 2.44 156.893 3.144 157.485 4.056C158.077 4.968 158.373 6.048 158.373 7.296C158.373 8.544 158.069 9.624 157.461 10.536C156.869 11.432 156.021 12.12 154.917 12.6L158.685 18H154.509ZM154.437 7.296C154.437 6.352 154.133 5.632 153.525 5.136C152.917 4.624 152.029 4.368 150.861 4.368H147.693V10.224H150.861C152.029 10.224 152.917 9.968 153.525 9.456C154.133 8.944 154.437 8.224 154.437 7.296ZM169.283 12.048V18H165.395V12L158.891 1.2H163.019L167.507 8.664L171.995 1.2H175.811L169.283 12.048Z" fill="#F5F5F5"/>
</svg>
